<svg width="192" height="193" viewBox="0 0 192 193" fill="none" xmlns="http://www.w3.org/2000/svg">
<rect width="192" height="193" fill="white"/>
<path d="M33.3027 192.014L61.1681 143.929L89.0336 96.0139L116.729 47.9293L121.317 40.3102L123.356 47.9293L131.851 79.5906L122.336 96.0139L94.4708 143.929L66.7752 192.014H100.078L127.943 143.929L142.386 119.04L149.182 143.929L162.096 192.014H192L179.087 143.929L166.173 96.0139L162.775 83.6541L183.504 47.9293H153.26L152.241 44.3737L141.706 5.09328L140.347 0.013916H111.292L110.612 1.02979L83.4265 47.9293L55.5611 96.0139L27.8655 143.929L0 192.014H33.3027Z" fill="#A30786"/>
</svg>
